<svg xmlns="http://www.w3.org/2000/svg" version="1.1" xmlns:xlink="http://www.w3.org/1999/xlink" width="512" height="512" x="0" y="0" viewBox="0 0 682.667 682.667" style="enable-background:new 0 0 512 512" xml:space="preserve" class=""><g><defs><clipPath id="a" clipPathUnits="userSpaceOnUse"><path d="M0 512h512V0H0Z" fill="#ffffff" opacity="1" data-original="#ffffff"></path></clipPath></defs><g clip-path="url(#a)" transform="matrix(1.33333 0 0 -1.33333 0 682.667)"><path d="M0 0v0a32.24 32.24 0 0 1 29.597-5.533C43.902-1.09 59.384-7.087 66.963-20.009a32.24 32.24 0 0 1 25.6-15.85c14.945-1.026 27.214-12.21 29.614-26.997a32.238 32.238 0 0 1 18.145-24.028c13.565-6.355 20.965-21.217 17.862-35.871a32.236 32.236 0 0 1 8.24-28.96c10.353-10.827 11.886-27.358 3.697-39.902a32.238 32.238 0 0 1-2.778-29.981c5.744-13.835 1.2-29.804-10.966-38.543a32.237 32.237 0 0 1-13.421-26.953c.357-14.975-9.647-28.224-24.149-31.978a32.234 32.234 0 0 1-22.251-20.285c-5.077-14.094-19.193-22.834-34.071-21.096h-.001a32.238 32.238 0 0 1-28.076-10.876v-.001c-9.824-11.308-26.143-14.358-39.389-7.363a32.238 32.238 0 0 1-30.11 0c-13.246-6.995-29.566-3.945-39.39 7.363v.001a32.238 32.238 0 0 1-28.077 10.876c-14.879-1.738-28.994 7.002-34.07 21.096a32.238 32.238 0 0 1-22.251 20.285c-14.502 3.754-24.507 17.003-24.149 31.978a32.24 32.24 0 0 1-13.421 26.953c-12.167 8.739-16.71 24.708-10.967 38.543a32.235 32.235 0 0 1-2.778 29.981c-8.188 12.544-6.656 29.075 3.697 39.902a32.234 32.234 0 0 1 8.241 28.96c-3.104 14.654 4.296 29.516 17.861 35.871a32.238 32.238 0 0 1 18.145 24.028c2.4 14.787 14.669 25.971 29.614 26.997a32.239 32.239 0 0 1 25.6 15.85C-99.457-7.087-83.976-1.09-69.669-5.533A32.237 32.237 0 0 1-40.073 0C-28.337 9.311-11.735 9.311 0 0Z" style="stroke-width:15;stroke-linecap:round;stroke-linejoin:round;stroke-miterlimit:10;stroke-dasharray:none;stroke-opacity:1" transform="translate(276.102 497.6)" fill="none" stroke="#ffffff" stroke-width="15" stroke-linecap="round" stroke-linejoin="round" stroke-miterlimit="10" stroke-dasharray="none" stroke-opacity="" data-original="#ffffff" class=""></path><path d="M0 0c8.646 70.266 68.542 124.671 141.146 124.671 72.626 0 132.539-54.439 141.155-124.736" style="stroke-width:15;stroke-linecap:round;stroke-linejoin:round;stroke-miterlimit:10;stroke-dasharray:none;stroke-opacity:1" transform="translate(114.919 327.425)" fill="none" stroke="#ffffff" stroke-width="15" stroke-linecap="round" stroke-linejoin="round" stroke-miterlimit="10" stroke-dasharray="none" stroke-opacity="" data-original="#ffffff" class=""></path><path d="M0 0c-8.613-70.301-68.526-124.744-141.155-124.744-72.608 0-132.507 54.41-141.148 124.681" style="stroke-width:15;stroke-linecap:round;stroke-linejoin:round;stroke-miterlimit:10;stroke-dasharray:none;stroke-opacity:1" transform="translate(397.22 292.405)" fill="none" stroke="#ffffff" stroke-width="15" stroke-linecap="round" stroke-linejoin="round" stroke-miterlimit="10" stroke-dasharray="none" stroke-opacity="" data-original="#ffffff" class=""></path><path d="m0 0 20.291-55.582a7.018 7.018 0 0 1 6.34-4.606l59.131-2.122c6.541-.234 9.227-8.503 4.074-12.537L43.244-111.32a7.016 7.016 0 0 1-2.421-7.453l16.255-56.893c1.798-6.293-5.236-11.403-10.665-7.749l-49.086 33.04a7.014 7.014 0 0 1-7.836 0l-49.086-33.04c-5.429-3.654-12.463 1.456-10.665 7.749l16.255 56.893a7.015 7.015 0 0 1-2.422 7.453l-46.591 36.473c-5.153 4.034-2.466 12.303 4.074 12.537l59.131 2.122a7.018 7.018 0 0 1 6.34 4.606L-13.183 0C-10.938 6.148-2.244 6.148 0 0Z" style="stroke-width:15;stroke-linecap:round;stroke-linejoin:round;stroke-miterlimit:10;stroke-dasharray:none;stroke-opacity:1" transform="translate(262.656 405.668)" fill="none" stroke="#ffffff" stroke-width="15" stroke-linecap="round" stroke-linejoin="round" stroke-miterlimit="10" stroke-dasharray="none" stroke-opacity="" data-original="#ffffff" class=""></path><path d="m0 0 44.76-108.056c3.361-8.116 14.654-8.652 18.769-.891l22.175 41.812a10.387 10.387 0 0 0 12.223 5.062l45.245-13.885c8.398-2.577 16.004 5.788 12.641 13.903L112.944 41.439" style="stroke-width:15;stroke-linecap:round;stroke-linejoin:round;stroke-miterlimit:10;stroke-dasharray:none;stroke-opacity:1" transform="translate(262.158 122.05)" fill="none" stroke="#ffffff" stroke-width="15" stroke-linecap="round" stroke-linejoin="round" stroke-miterlimit="10" stroke-dasharray="none" stroke-opacity="" data-original="#ffffff" class=""></path><path d="m0 0-42.87-103.494c-3.361-8.115 4.245-16.48 12.642-13.902l45.246 13.884a10.386 10.386 0 0 0 12.222-5.062l22.175-41.812c4.116-7.761 15.408-7.225 18.77.891l44.759 108.056" style="stroke-width:15;stroke-linecap:round;stroke-linejoin:round;stroke-miterlimit:10;stroke-dasharray:none;stroke-opacity:1" transform="translate(137.028 163.49)" fill="none" stroke="#ffffff" stroke-width="15" stroke-linecap="round" stroke-linejoin="round" stroke-miterlimit="10" stroke-dasharray="none" stroke-opacity="" data-original="#ffffff" class=""></path></g></g></svg>