<svg xmlns="http://www.w3.org/2000/svg" version="1.1" xmlns:xlink="http://www.w3.org/1999/xlink" width="512" height="512" x="0" y="0" viewBox="0 0 128 128" style="enable-background:new 0 0 512 512" xml:space="preserve" class=""><g><path d="M100.37 17.25H27.63a10.391 10.391 0 0 0-10.38 10.38V76.3a10.392 10.392 0 0 0 10.38 10.38h33.22V109a1.749 1.749 0 0 0 1.75 1.75h25.23a1.749 1.749 0 0 0 1.75-1.75V98.45h7.71a1.749 1.749 0 0 0 1.75-1.75V86.68h1.33a10.392 10.392 0 0 0 10.38-10.38V27.63a10.391 10.391 0 0 0-10.38-10.38zM55.41 83.18c.052-.049.107-.093.157-.143l5.283-5.282v5.425zm40.13 11.77h-5.963V75.1a1.75 1.75 0 0 0-3.5 0v32.149H64.35V73.53a1.75 1.75 0 0 0-2.988-1.237l-8.269 8.27a4.381 4.381 0 0 1-6.205 0l-13.7-13.7 4.212-4.218L48.753 74a1.75 1.75 0 0 0 1.237.513H50a1.75 1.75 0 0 0 1.24-.522l9.731-9.871a8.092 8.092 0 0 1 5.733-2.4H84.35a11.2 11.2 0 0 1 11.19 11.19zm11.71-18.65a6.887 6.887 0 0 1-6.88 6.88h-1.33V72.91a14.707 14.707 0 0 0-14.69-14.69H66.7a11.61 11.61 0 0 0-8.226 3.441l-8.493 8.615-10.265-10.265V39.694a1.75 1.75 0 0 0-3.5 0v19.192c-.019.017-.039.029-.057.047l-6.69 6.69a1.749 1.749 0 0 0 0 2.475l14.94 14.939c.05.05.106.094.157.143H27.63a6.887 6.887 0 0 1-6.88-6.88V27.63a6.887 6.887 0 0 1 6.88-6.88h72.74a6.887 6.887 0 0 1 6.88 6.88z" fill="#ffffff" opacity="1" data-original="#ffffff" class=""></path><path d="M75.677 33.348A10.734 10.734 0 1 0 86.41 44.081a10.746 10.746 0 0 0-10.733-10.733zm0 17.967a7.234 7.234 0 1 1 7.233-7.234 7.243 7.243 0 0 1-7.233 7.234z" fill="#ffffff" opacity="1" data-original="#ffffff" class=""></path></g></svg>