<svg xmlns="http://www.w3.org/2000/svg" version="1.1" xmlns:xlink="http://www.w3.org/1999/xlink" width="512" height="512" x="0" y="0" viewBox="0 0 66 66" style="enable-background:new 0 0 512 512" xml:space="preserve" class=""><g><path d="M63.83 8.52c-.71-1.73-2.21-3.12-4.13-3.81-1.39-.5-2.84-.57-4.16-.23-.2-1.63-1.54-2.84-3.19-2.84H13.62c-1.65 0-3.03 1.25-3.21 2.9-.01.08-.01.16-.02.24-2.73-1.2-5.93-1.2-7.6 1.43-1.52 2.4-1.3 5.21-.85 7.15.87 3.73 3.18 7.64 7.07 11.96 3.69 4.1 8.35 7.41 12.85 9.17 1.7 1.64 3.53 3.06 5.47 4.16.53.3.8.86.68 1.39-.7 3-1.66 4.91-3.11 6.17h-.48c-.54 0-.97.43-.97.97v7.1c-2.25.45-4.22 1.53-5.62 4.07-.61 1.11-.91 2.3-.85 3.43.07 1.45 1.36 2.59 2.93 2.59h27.5c.93 0 1.81-.42 2.36-1.12.5-.64.68-1.45.5-2.22-.36-1.48-1.78-6.07-5.65-7.02v-6.83c0-.54-.43-.97-.97-.97h-1.38a.662.662 0 0 0-.15-.22c-1.3-1.28-2.39-3.51-2.79-5.69-.11-.59.15-1.16.63-1.38 2.35-1.08 4.4-2.64 6.18-4.53h.01c6.19-4.43 13.88-9.95 17.17-18.11 1.21-3.01 1.38-5.62.51-7.76zM10.47 24.01c-3.66-4.07-5.83-7.7-6.62-11.1-.37-1.57-.56-3.83.6-5.67 1.57-2.48 5.09-.78 5.83-.38-.19 8.15 3.01 17.03 8.15 23.74-2.85-1.7-5.61-3.97-7.96-6.59zm37.92 37.47c.06.25-.04.45-.14.57-.19.24-.5.38-.84.38h-27.5c-.52 0-.97-.34-.99-.74-.04-.76.18-1.61.62-2.4 1.69-3.07 4.5-3.39 8.06-3.39.44 0 .89 0 1.35.01h.15c1.92.02 3.89-.05 5.79-.12 2.85-.1 5.81-.21 8.61-.01 2.63.18 4.25 3.07 4.89 5.7zm-5.71-7.68c-2.61-.13-5.27-.04-7.86.05-1.88.07-3.83.14-5.7.12h-.15c-1.22-.01-2.42-.02-3.57.06v-5.88h17.28zm-3.53-16.65c-1.28.59-1.99 2.03-1.73 3.49.36 1.99 1.24 4.03 2.35 5.56H27.52c1.33-1.8 1.97-3.94 2.39-5.73.32-1.37-.33-2.78-1.61-3.51-1.66-.94-3.23-2.16-4.71-3.56a.974.974 0 0 0-.55-.54c-.01 0-.03-.01-.04-.02-7.06-7.03-11.67-18.53-10.65-28.1.07-.67.62-1.17 1.28-1.17h38.72c.67 0 1.22.5 1.28 1.17.02.25.03.5.05.75-.12.26-.13.57.02.85 0 .01.01.01.01.02.3 10.46-4.32 26.07-14.56 30.79zm22.38-21.6c-2.25 5.59-6.85 9.95-11.5 13.56 4.07-7.04 5.78-15.96 5.62-22.63 1.04-.36 2.23-.36 3.39.05 1.4.5 2.49 1.49 2.99 2.72.68 1.66.51 3.78-.5 6.3z" fill="#ffffff" opacity="1" data-original="#ffffff" class=""></path><path d="M43.78 14.35c-2.11 0-4.11-.67-5.36-1.78-.71-.64-1.18-1.45-1.68-2.3s-1.01-1.73-1.79-2.5c-.21-.2-.5-.3-.79-.27s-.55.19-.71.44c-.39.61-.7 1.25-.99 1.87-.57 1.21-1.11 2.35-2.14 3.01-.61.26-5.22 1.15-6.18 1.16a.959.959 0 0 0-.92.22c-.39.36-.42.98-.06 1.37.72.78 1.4 1.63 2.06 2.45.59.73 1.19 1.49 1.84 2.22-.11.85-.25 1.74-.38 2.6-.16 1.03-.33 2.1-.45 3.12-.04.34.11.68.38.89.28.21.64.25.96.12 1.95-.83 3.76-1.9 5.38-3.19 1.85 1.2 3.76 2.03 5.76 2.9.46.2.92.4 1.38.61.13.06.26.08.39.08.22 0 .43-.07.61-.22.28-.23.41-.6.34-.95-.1-.5-.28-1.08-.46-1.69-.4-1.35-.96-3.21-.66-4.01.33-.62 3.07-3.75 3.76-4.24a.97.97 0 0 0 .67-.92.96.96 0 0 0-.96-.99zm-5.25 5.41c-.51 1.37-.02 3.23.49 4.93-1.96-.86-3.82-1.7-5.56-2.92a.957.957 0 0 0-.56-.18c-.22 0-.45.08-.63.23a20.517 20.517 0 0 1-3.87 2.61c.06-.43.13-.86.2-1.29.16-1.03.33-2.1.45-3.12a.956.956 0 0 0-.25-.76c-.72-.78-1.4-1.63-2.06-2.45l-.88-1.09c2.37-.33 5.4-1.2 5.44-1.22 1.57-1 2.29-2.52 2.92-3.85.07-.15.14-.3.21-.44.22.33.42.68.63 1.04.55.95 1.12 1.93 2.06 2.77 1.13 1.01 2.65 1.72 4.35 2.06-1.41 1.5-2.87 3.49-2.94 3.68zM48.89 7.91c-.4.09-.07 2.69-.49 5.82-.37 3.13-1.33 5.58-.97 5.76.31.19 1.92-2.17 2.34-5.58.45-3.42-.54-6.1-.88-6zM15.7 5.62c-.39.28-.82.82-1.05 1.52s-.2 1.39-.05 1.85.39.69.57.64c.38-.11.44-1.05.79-2.06.31-1.02.82-1.82.58-2.13-.11-.14-.44-.1-.84.18zM42.72 57.48c-.18.35.54 1.1.94 2.22.45 1.1.4 2.15.77 2.28.17.06.45-.18.62-.7.18-.51.2-1.3-.1-2.08s-.84-1.35-1.31-1.62c-.46-.26-.83-.26-.92-.1z" fill="#ffffff" opacity="1" data-original="#ffffff" class=""></path></g></svg>